HIERARCHY
ROOT Hips
{
	OFFSET 0.00000 0.00000 0.00000
	CHANNELS 6 Xposition Yposition Zposition Zrotation Yrotation Xrotation 
	JOINT LHipJoint
	{
		OFFSET 0 0 0
		CHANNELS 3 Zrotation Yrotation Xrotation
		JOINT LeftHip
		{
			OFFSET 1.78158 -1.79992 1.25746
			CHANNELS 3 Zrotation Yrotation Xrotation
			JOINT LeftKnee
			{
				OFFSET 2.48433 -6.82566 0.00000
				CHANNELS 3 Zrotation Yrotation Xrotation
				JOINT LeftAnkle
				{
					OFFSET 2.69722 -7.41057 0.00000
					CHANNELS 3 Zrotation Yrotation Xrotation
					JOINT LeftToe
					{
						OFFSET 0.10733 -0.29489 1.75071
						CHANNELS 3 Zrotation Yrotation Xrotation
						End Site
						{
							OFFSET 0.00000 -0.00000 0.90224
						}
					}
				}
			}
		}
	}
	JOINT RHipJoint
	{
		OFFSET 0 0 0
		CHANNELS 3 Zrotation Yrotation Xrotation
		JOINT RightHip
		{
			OFFSET -1.91234 -1.79993 1.25746
			CHANNELS 3 Zrotation Yrotation Xrotation
			JOINT RightKnee
			{
				OFFSET -2.33122 -6.40498 0.00000
				CHANNELS 3 Zrotation Yrotation Xrotation
				JOINT RightAnkle
				{
					OFFSET -2.75667 -7.57390 0.00000
					CHANNELS 3 Zrotation Yrotation Xrotation
					JOINT RightToe
					{
						OFFSET -0.15946 -0.43811 1.78925
						CHANNELS 3 Zrotation Yrotation Xrotation
						End Site
						{
							OFFSET -0.00000 -0.00000 0.93158
						}
					}
				}
			}
		}
	}
	JOINT lowerback
	{
		OFFSET 0 0 0
		CHANNELS 3 Zrotation Yrotation Xrotation
		JOINT Chest
		{
			OFFSET -0.02267 2.03993 -0.26238
			CHANNELS 3 Zrotation Yrotation Xrotation
			JOINT Chest2
			{
				OFFSET 0.02263 2.06220 -0.00892
				CHANNELS 3 Zrotation Yrotation Xrotation
				JOINT lowerneck
				{
					OFFSET 0 0 0
					CHANNELS 3 Zrotation Yrotation Xrotation
					JOINT Neck
					{
						OFFSET -0.06177 1.95978 0.28606
						CHANNELS 3 Zrotation Yrotation Xrotation
						JOINT Head
						{
							OFFSET 0.08482 1.96576 -0.43252
							CHANNELS 3 Zrotation Yrotation Xrotation
							End Site
							{
								OFFSET 0.02787 2.02739 -0.18071
							}
						}
					}
				}
				JOINT LeftCollar
				{
					OFFSET 0 0 0
					CHANNELS 3 Zrotation Yrotation Xrotation
					JOINT LeftShoulder
					{
						OFFSET 3.80978 1.64906 0.29973
CHANNELS 3 Zrotation Xrotation Yrotation
						JOINT LeftElbow
						{
OFFSET 0 -4.930420 0.000000
CHANNELS 3 Zrotation Xrotation Yrotation
							JOINT LeftWrist
							{
OFFSET 0 -3.681770 0.000000
CHANNELS 3 Zrotation Xrotation Yrotation
								JOINT lhand
								{
									OFFSET 0 0 0
CHANNELS 3 Zrotation Xrotation Yrotation
									JOINT LFingers
									{
OFFSET 0 -0.721480 0.000000
CHANNELS 3 Zrotation Xrotation Yrotation
										End Site
										{
OFFSET 0 -0.581680 0.000000
										}
									}
								}
								JOINT LThumb
								{
OFFSET 0 0.000000 0.000000
CHANNELS 3 Zrotation Xrotation Yrotation
									End Site
									{
OFFSET 0 -0.590560 0.590560
									}
								}
							}
						}
					}
				}
				JOINT RightCollar
				{
					OFFSET 0 0 0
					CHANNELS 3 Zrotation Yrotation Xrotation
					JOINT RightShoulder
					{
						OFFSET -3.49270 1.85636 0.09297
CHANNELS 3 Zrotation Xrotation Yrotation
						JOINT RightElbow
						{
OFFSET 0 -5.079050 -0.000000
CHANNELS 3 Zrotation Xrotation Yrotation
							JOINT RightWrist
							{
OFFSET 0 -3.543940 0.000000
CHANNELS 3 Zrotation Xrotation Yrotation
								JOINT rhand
								{
									OFFSET 0 0 0
CHANNELS 3 Zrotation Xrotation Yrotation
									JOINT RFingers
									{
OFFSET 0 -0.681160 0.000000
CHANNELS 3 Zrotation Xrotation Yrotation
										End Site
										{
OFFSET 0 -0.549170 0.000000
										}
									}
								}
								JOINT RThumb
								{
OFFSET 0 0.000000 0.000000
CHANNELS 3 Zrotation Xrotation Yrotation
									End Site
									{
OFFSET 0 -0.557550 0.557550
									}
								}
							}
						}
					}
				}
			}
		}
	}
}
MOTION
Frames: 5
Frame Time: 0.008333333333333333
-10.212500 17.988700 -16.807800 -66.706200 87.929900 -62.101800 0.000000 0.000000 0.000000 -12.309400 -15.116200 -5.304800 1.615000 8.013400 22.754800 1.505800 1.805700 -23.899300 0.222500 -3.036500 -8.380300 0.000000 0.000000 0.000000 14.089300 3.129300 4.261400 0.000000 0.000000 -0.000000 0.377300 -13.350400 -13.279700 -0.108400 2.122700 -5.844900 0.074200 0.180600 5.841900 1.440100 0.335200 -2.237200 1.419400 0.195600 -5.612300 -6.089700 -4.360400 -22.300100 3.340100 -4.725600 30.352900 1.550700 -2.099600 14.421000 0.000000 0.000000 0.000000 1.890700 3.060400 -13.418900 20.285300 -30.984600 5.677500 31.830700 -9.467000 -8.331500 0.000000 0.000000 0.000000 -7.125000 0.000000 0.000000 4.341900 39.723700 0.565900 0.000000 0.000000 0.000000 -3.988900 5.161200 25.999000 -21.118700 -31.966700 -6.112700 -19.534300 36.049800 15.324900 0.000000 0.000000 0.000000 7.125000 0.000000 -0.000000 7.627600 46.051400 -0.199100
-10.207004 17.988022 -16.772864 -65.901553 87.819296 -61.301068 0.000000 0.000000 0.000000 -12.135023 -15.265580 -5.148268 1.608450 7.997815 22.707441 1.518901 2.005074 -24.083690 0.204355 -2.909859 -8.028008 0.000000 0.000000 0.000000 14.327298 3.212423 4.303262 0.000000 0.000000 0.000000 0.379333 -13.355294 -13.249583 -0.104485 2.083849 -5.737383 0.157021 0.164563 5.812611 1.476240 0.322702 -2.239609 1.411720 0.187393 -5.597543 -6.076147 -4.288571 -22.347986 3.219708 -4.580211 30.383167 1.526682 -2.053145 14.431993 0.000000 0.000000 0.000000 1.767522 3.024260 -12.725459 19.979162 -30.616647 5.520968 31.747728 -9.477164 -8.395122 0.000000 0.000000 0.000000 -7.125000 0.000000 0.000000 4.268340 39.790409 0.549260 0.000000 0.000000 0.000000 -4.140990 5.111808 26.482225 -20.836129 -31.636092 -5.963998 -19.613131 35.938292 15.509893 0.000000 0.000000 0.000000 7.125000 0.000000 0.000000 7.598387 46.253785 -0.236445
-10.202064 17.987395 -16.737878 -65.307842 87.715065 -60.710362 0.000000 0.000000 0.000000 -11.962013 -15.401706 -4.992494 1.599319 7.976159 22.641771 1.529068 2.200906 -24.245116 0.189801 -2.805019 -7.736417 0.000000 0.000000 0.000000 14.555332 3.289121 4.336171 0.000000 0.000000 0.000000 0.378381 -13.337172 -13.229533 -0.099103 2.029621 -5.587425 0.239944 0.149183 5.787167 1.517287 0.311366 -2.238832 1.408998 0.179844 -5.581723 -6.077113 -4.227871 -22.399615 3.088946 -4.441701 30.408528 1.499477 -2.013013 14.442530 0.000000 0.000000 0.000000 1.615460 2.987664 -12.054377 19.635946 -30.200134 5.347489 31.690756 -9.492337 -8.442961 0.000000 0.000000 0.000000 -7.125000 0.000000 0.000000 4.217795 39.840981 0.537477 0.000000 0.000000 0.000000 -4.233947 5.002221 26.599776 -20.459116 -31.190051 -5.767949 -19.622155 36.044651 15.643795 0.000000 0.000000 0.000000 7.125000 0.000000 0.000000 7.622135 46.394154 -0.263825
-10.197577 17.986974 -16.702790 -64.840840 87.625152 -60.243487 0.000000 0.000000 0.000000 -11.798156 -15.522510 -4.842499 1.588101 7.949494 22.560920 1.535835 2.393353 -24.380263 0.181400 -2.743252 -7.564707 0.000000 0.000000 0.000000 14.765275 3.357558 4.360101 0.000000 0.000000 0.000000 0.374626 -13.301054 -13.227570 -0.092719 1.963508 -5.404757 0.314558 0.135134 5.763808 1.559747 0.301169 -2.236782 1.412293 0.173185 -5.565902 -6.091457 -4.180421 -22.451934 2.944761 -4.312503 30.430302 1.467144 -1.980523 14.452560 0.000000 0.000000 0.000000 1.439251 2.950251 -11.412846 19.258187 -29.737155 5.158799 31.656887 -9.553609 -8.483687 0.000000 0.000000 0.000000 -7.125000 0.000000 0.000000 4.187601 39.885302 0.529049 0.000000 0.000000 0.000000 -4.271213 4.846982 26.362910 -20.005983 -30.647906 -5.535188 -19.561037 36.351177 15.717681 0.000000 0.000000 0.000000 7.125000 0.000000 0.000000 7.696879 46.462933 -0.279480
-10.193438 17.986914 -16.667555 -64.421387 87.557469 -59.819422 0.000000 0.000000 0.000000 -11.651184 -15.626045 -4.703005 1.575238 7.918771 22.467695 1.538729 2.582571 -24.485764 0.181641 -2.745156 -7.570181 0.000000 0.000000 0.000000 14.949151 3.415718 4.375097 0.000000 0.000000 0.000000 0.368273 -13.251989 -13.251227 -0.085785 1.888911 -5.198840 0.372674 0.122994 5.740863 1.600151 0.291983 -2.235344 1.422580 0.167590 -5.551150 -6.117929 -4.148254 -22.501956 2.784090 -4.194967 30.449838 1.427742 -1.956948 14.462052 0.000000 0.000000 0.000000 1.243523 2.911611 -10.807518 18.848463 -29.229865 4.956651 31.642869 -9.701817 -8.526112 0.000000 0.000000 0.000000 -7.125000 0.000000 0.000000 4.174784 39.933388 0.522431 0.000000 0.000000 0.000000 -4.256885 4.661026 25.785455 -19.495487 -30.029592 -5.276541 -19.430222 36.838051 15.723434 0.000000 0.000000 0.000000 7.125000 0.000000 0.000000 7.820113 46.451516 -0.281793
